Coordinates
version=1
nRows=14
nColumns=24
inDegrees=yes

Units are S.I. units (second, meters, Newtons, ...)
Angles are in degrees.

endheader
time	pelvis_tilt	pelvis_list	pelvis_rotation	pelvis_tx	pelvis_ty	pelvis_tz	hip_flexion_r	hip_adduction_r	hip_rotation_r	knee_angle_r	ankle_angle_r	subtalar_angle_r	mtp_angle_r	hip_flexion_l	hip_adduction_l	hip_rotation_l	knee_angle_l	ankle_angle_l	subtalar_angle_l	mtp_angle_l	lumbar_extension	lumbar_bending	lumbar_rotation
      1.43433333	      8.39362752	      0.66707839	     -3.00596573	      0.28367170	      1.03449355	      0.26025316	      2.24680853	     -5.82946064	     -6.44540235	    -61.93319094	      5.22115773	     -3.19167417	      5.31444872	      1.02823474	      2.77952058	     -6.09974220	    -11.42231724	      1.51087522	    -16.40737085	    -10.51322365	    -20.50488568	     -3.53299256	      3.59947184
      1.43850000	      8.45780043	      0.56655316	     -2.63221754	      0.28843839	      1.03530742	      0.25913030	      2.71371622	     -5.70480738	     -6.88537381	    -61.74058849	      5.46024016	     -3.64281250	      4.80820935	      0.56718517	      2.74013132	     -5.73296233	    -11.22061950	      1.64520012	    -16.33241160	    -10.54015336	    -20.65883413	     -3.27900741	      3.15485040
      1.44266667	      8.45483549	      0.46157832	     -2.40829999	      0.29318558	      1.03599926	      0.25839671	      3.29549654	     -5.54000903	     -7.16087536	    -61.53032708	      5.66983313	     -4.21549650	      4.72166424	      0.16950852	      2.66523023	     -5.58197980	    -11.00547323	      1.71119523	    -16.22760644	    -10.54373773	    -20.71194702	     -3.08053208	      3.10900413
      1.44683333	      8.53767724	      0.28273049	     -2.03782778	      0.29797911	      1.03687537	      0.25736506	      3.69259192	     -5.31820763	     -7.60249198	    -61.14609050	      5.75492917	     -4.71646931	      4.39329385	     -0.31402313	      2.51413675	     -5.28043868	    -10.81281478	      1.89674557	    -16.00579855	    -10.55878414	    -20.87029604	     -2.74601432	      2.70164891
      1.45100000	      8.55324341	      0.16382240	     -1.77812818	      0.30271959	      1.03757434	      0.25654206	      4.21052354	     -5.15585714	     -7.93621183	    -60.77986839	      5.83517447	     -5.28578553	      4.23087188	     -0.73610701	      2.42397611	     -5.05923898	    -10.58766794	      2.01912225	    -15.91067649	    -10.56558724	    -20.94521303	     -2.52358659	      2.57796636
      1.45516667	      8.62054309	      0.01527095	     -1.45601218	      0.30748748	      1.03835220	      0.25559186	      4.62253991	     -4.97738179	     -8.34790932	    -60.31154867	      5.93140314	     -5.77187906	      4.01994091	     -1.20519869	      2.29653277	     -4.81487220	    -10.38083466	      2.16671225	    -15.74348352	    -10.57428911	    -21.07455476	     -2.23651295	      2.30912431
      1.45933333	      8.70402644	     -0.12617285	     -1.15063933	      0.31223225	      1.03912014	      0.25467277	      5.00946683	     -4.81120760	     -8.74914622	    -59.79278307	      6.03896070	     -6.22174175	      3.80449603	     -1.69672427	      2.17409605	     -4.57839406	    -10.15791455	      2.29040208	    -15.60227812	    -10.58394294	    -21.22368163	     -1.96212669	      2.05830983
      1.46350000	      8.77978319	     -0.26600032	     -0.84580348	      0.31698237	      1.03985251	      0.25375588	      5.38947559	     -4.65160508	     -9.15609027	    -59.21744983	      6.14751078	     -6.62886296	      3.58774228	     -2.17774532	      2.04810187	     -4.34950345	     -9.93574474	      2.41001197	    -15.46554647	    -10.59398309	    -21.35896808	     -1.68472761	      1.81539516
      1.46766667	      8.94561669	     -0.40264702	     -0.50433698	      0.32172380	      1.04069556	      0.25274402	      5.63515855	     -4.51425966	     -9.61390714	    -58.56449161	      6.30682056	     -6.89785747	      3.15816338	     -2.76402022	      1.92518901	     -4.07763305	     -9.68761927	      2.50619909	    -15.32446294	    -10.61722332	    -21.60536187	     -1.39134541	      1.42083506
      1.47183333	      8.96591522	     -0.53830756	     -0.24899087	      0.32645613	      1.04127859	      0.25196198	      6.06767379	     -4.34976756	     -9.96660792	    -57.89851956	      6.35760835	     -7.29024772	      2.95844273	     -3.18267288	      1.79324377	     -3.88701649	     -9.46853255	      2.62769736	    -15.23232841	    -10.62681865	    -21.66701895	     -1.14773801	      1.32066060
      1.47600000	      9.06979813	     -0.69129008	      0.05892686	      0.33118824	      1.04197451	      0.25107690	      6.36426615	     -4.18029171	    -10.38369929	    -57.14329379	      6.44796616	     -7.58080972	      2.71399048	     -3.68957041	      1.63602164	     -3.66357648	     -9.24488054	      2.75839044	    -15.07048108	    -10.63786459	    -21.83425348	     -0.85026150	      1.05795462
      1.48016667	      9.17798907	     -0.82602796	      0.34538881	      0.33591557	      1.04263423	      0.25020942	      6.64896873	     -4.03562366	    -10.78410423	    -56.34984843	      6.54595336	     -7.81310114	      2.46301626	     -4.20838543	      1.50010597	     -3.44729626	     -9.00243815	      2.86179959	    -14.95916283	    -10.64925799	    -22.00605904	     -0.56835500	      0.81621941
      1.48433333	      9.34750226	     -0.92758712	      0.64734674	      0.34062306	      1.04333427	      0.24932401	      6.84413983	     -3.93740751	    -11.21161269	    -55.50872641	      6.70869961	     -7.96655044	      2.03437988	     -4.79553859	      1.39472493	     -3.21164386	     -8.74619406	      2.94246521	    -14.86370370	    -10.67067080	    -22.24818810	     -0.33460953	      0.48194704
      1.48850000	      9.31757307	     -1.05485543	      0.84935979	      0.34539348	      1.04371568	      0.24872033	      7.27752703	     -3.77489161	    -11.50551286	    -54.65194110	      6.82345694	     -8.12932480	      1.89781157	     -5.15626612	      1.25540327	     -3.10037596	     -8.52738076	      3.00848663	    -14.80566953	    -10.67698102	    -22.23645689	     -0.12250510	      0.42269074
